<?xml version="1.0" encoding="UTF-8"?>
<!DOCTYPE svg PUBLIC "-//W3C//DTD SVG 1.1//EN" "http://www.w3.org/Graphics/SVG/1.1/DTD/svg11.dtd">
<svg xmlns="http://www.w3.org/2000/svg" version="1.1" width="25px" height="24px" style="shape-rendering:geometricPrecision; text-rendering:geometricPrecision; image-rendering:optimizeQuality; fill-rule:evenodd; clip-rule:evenodd" xmlns:xlink="http://www.w3.org/1999/xlink">
<g><path style="opacity:0.728" fill="#0066ff" d="M 3.5,2.5 C 9.17645,2.33391 14.8431,2.50058 20.5,3C 21.8333,4.66667 21.8333,6.33333 20.5,8C 14.8333,8.66667 9.16667,8.66667 3.5,8C 2.24751,6.17216 2.24751,4.33883 3.5,2.5 Z M 5.5,4.5 C 9.88387,4.17443 14.2172,4.50776 18.5,5.5C 16.3333,5.83333 14.1667,6.16667 12,6.5C 9.38965,6.46677 7.22299,5.80011 5.5,4.5 Z"/></g>
<g><path style="opacity:0.707" fill="#0066ff" d="M 3.5,10.5 C 6.51838,10.3354 9.51838,10.502 12.5,11C 15.6493,19.8515 12.6493,22.8515 3.5,20C 2.20801,16.8347 2.20801,13.668 3.5,10.5 Z M 5.5,12.5 C 7.16667,12.5 8.83333,12.5 10.5,12.5C 10.5,14.5 10.5,16.5 10.5,18.5C 8.83333,18.5 7.16667,18.5 5.5,18.5C 5.5,16.5 5.5,14.5 5.5,12.5 Z"/></g>
<g><path style="opacity:0.693" fill="#0066ff" d="M 15.5,10.5 C 17.4672,10.2606 19.3005,10.5939 21,11.5C 21.7772,14.4294 21.6105,17.2628 20.5,20C 18.5594,20.7429 16.7261,20.5762 15,19.5C 14.2642,16.408 14.4309,13.408 15.5,10.5 Z"/></g>
</svg>
